<svg width="319" height="46" viewBox="0 0 319 46" fill="none" xmlns="http://www.w3.org/2000/svg">
<g clip-path="url(#clip0_28_351)">
<path d="M43.325 4.28064H27.4574V9.79744H37.8005V36.3672H25.8518V6.77572H21.7492V36.3672H9.80608V9.79744H20.1473V4.28064H4.27881V41.7202H43.325V4.28064Z" fill="#20B78A"/>
<path d="M0 0V46H47.6047V0H0ZM44.9315 43.1468H2.85506V2.85316H44.9315V43.1468Z" fill="#20B78A"/>
<path d="M20.1321 34.8035V11.2021C15.101 12.7649 11.4479 17.457 11.4479 23.0024C11.4479 28.5477 15.101 33.2398 20.1321 34.8035Z" fill="#20B78A"/>
<path d="M36.1568 23.0023C36.1568 17.4484 32.4923 12.7515 27.4488 11.1954V34.8092C32.4923 33.2541 36.1568 28.5563 36.1568 23.0023Z" fill="#20B78A"/>
</g>
<path d="M71.8007 16.394V10.102H78.5607V16.394H71.8007ZM62.5447 16.394V10.102H69.2787V16.394H62.5447ZM71.8007 7.736V3.212H69.2787V7.736H60.1267V20.294H62.5447V18.76H69.2787V27.028H71.8007V18.76H78.5607V20.164H81.0827V7.736H71.8007ZM92.3927 5.5C94.8107 7.164 97.9047 9.686 99.3347 11.298L101.129 9.452C99.5947 7.814 96.4227 5.474 94.0307 3.888L92.3927 5.5ZM103.053 12.338C104.457 15.406 105.835 19.488 106.303 22.14L108.721 21.126C108.175 18.474 106.797 14.548 105.289 11.454L103.053 12.338ZM86.9847 12.208C86.6467 15.432 85.8147 19.384 84.8007 22.062L87.2187 23.076C88.2067 20.242 88.9607 15.848 89.3507 12.65L86.9847 12.208ZM91.3267 10.466V22.868C91.3267 25.728 92.1847 26.56 95.2267 26.56H100.037C103.053 26.56 103.755 25.078 104.041 20.19C103.417 20.034 102.351 19.592 101.779 19.15C101.597 23.44 101.363 24.298 99.8807 24.298H95.4867C94.1087 24.298 93.8227 24.09 93.8227 22.868V10.466H91.3267ZM122.527 8.386H131.731V10.882H133.967V6.306H128.663C128.377 5.37 127.857 4.096 127.389 3.108L125.101 3.654C125.439 4.434 125.803 5.448 126.089 6.306H120.369V10.882H122.527V8.386ZM122.371 13.144H131.913V11.038H122.371V13.144ZM119.433 18.422C119.225 17.122 118.627 14.912 118.055 13.222L116.391 13.664C116.599 14.314 116.807 15.016 116.989 15.744L113.999 16.238C115.871 13.898 117.717 10.986 119.199 8.126L117.197 7.086C116.755 8.204 116.157 9.348 115.585 10.414L113.401 10.648C114.623 8.724 115.845 6.28 116.729 3.992L114.571 3.108C113.791 5.89 112.283 8.828 111.789 9.556C111.321 10.362 110.931 10.882 110.489 10.986C110.749 11.558 111.061 12.624 111.191 13.04C111.555 12.858 112.101 12.702 114.415 12.39C113.609 13.716 112.855 14.756 112.517 15.198C111.789 16.16 111.243 16.784 110.697 16.914C110.931 17.46 111.269 18.5 111.373 18.942C111.867 18.656 112.621 18.422 117.379 17.512C117.483 18.084 117.587 18.578 117.639 18.994L119.433 18.422ZM111.581 19.904C111.373 22.036 111.035 24.35 110.437 25.91C110.905 26.04 111.763 26.326 112.179 26.534C112.699 24.922 113.141 22.478 113.401 20.216L111.581 19.904ZM114.155 20.216C114.441 21.984 114.727 24.272 114.779 25.754L116.573 25.338C116.469 23.83 116.183 21.594 115.845 19.826L114.155 20.216ZM116.677 19.696C117.171 21.074 117.769 22.842 118.003 24.012L119.667 23.414C119.433 22.27 118.809 20.554 118.263 19.202L116.677 19.696ZM122.631 19.332C121.799 20.996 120.551 22.92 119.407 24.22C119.901 24.532 120.837 25.182 121.253 25.572C122.397 24.142 123.853 21.906 124.815 19.982L122.631 19.332ZM134.123 17.772V15.666H119.901V17.772H125.881V26.976H128.247V17.772H134.123ZM129.417 20.034C130.483 21.724 131.783 23.986 132.355 25.338L134.461 24.402C133.837 23.076 132.485 20.892 131.393 19.28L129.417 20.034ZM154.377 18.656V23.466H143.119V18.656H154.377ZM140.675 27.002H143.119V25.702H154.377V26.898H156.925V16.498H140.675V27.002ZM143.613 11.558C145.485 10.258 147.253 8.75 148.761 7.086C150.607 8.906 152.401 10.336 154.299 11.558H143.613ZM148.943 3.108C146.265 7.112 141.481 10.414 136.645 12.312C137.321 12.91 137.997 13.82 138.413 14.496C139.687 13.924 140.935 13.222 142.157 12.494V13.794H155.105V12.078C156.405 12.858 157.731 13.56 159.109 14.21C159.447 13.456 160.149 12.572 160.799 12C156.951 10.466 153.415 8.49 150.243 5.37C150.555 4.98 150.815 4.59 151.075 4.2L148.943 3.108ZM175.645 10.18H181.963C181.495 10.804 180.897 11.376 180.195 11.896C178.921 11.35 177.621 10.83 176.503 10.414L175.645 11.636C176.555 12 177.543 12.416 178.557 12.858C177.413 13.378 176.165 13.794 174.917 14.054C175.255 14.418 175.697 15.094 175.905 15.536C177.517 15.12 179.103 14.548 180.481 13.716C181.937 14.392 183.289 15.042 184.199 15.536L185.083 14.132C184.303 13.69 183.185 13.196 181.989 12.65C183.107 11.714 183.991 10.57 184.589 9.14L183.419 8.646L183.055 8.698H176.503C178.037 7.788 178.505 6.644 178.583 5.526H181.261V5.994C181.261 7.606 181.599 8.282 183.237 8.282H184.641C185.083 8.282 185.551 8.256 185.837 8.152C185.785 7.684 185.733 7.034 185.681 6.54C185.395 6.618 184.875 6.67 184.563 6.67H183.523C183.211 6.67 183.159 6.514 183.159 6.02V3.836H176.711V5.162C176.711 6.046 176.373 6.904 174.397 7.632C174.735 7.892 175.359 8.594 175.645 9.036V10.18ZM169.769 7.736V8.88V8.906H166.519V10.18H169.509C169.145 10.908 168.365 11.688 166.597 12.182C166.961 12.468 167.429 12.962 167.637 13.352C169.171 12.754 170.107 12.026 170.627 11.272C171.641 11.922 172.681 12.65 173.253 13.222L174.215 12.13C173.591 11.584 172.447 10.804 171.407 10.18H174.475V8.906H171.355V7.736H174.033V6.514H169.197C169.327 6.254 169.431 5.994 169.535 5.76L168.105 5.422C167.741 6.358 167.117 7.268 166.311 8.022C166.649 8.178 167.299 8.542 167.559 8.776C167.871 8.464 168.157 8.126 168.443 7.736H169.769ZM164.127 12.052C164.127 14.08 164.777 14.834 167.039 14.834H172.447C173.435 14.834 174.475 14.808 174.943 14.678C174.865 14.288 174.787 13.69 174.735 13.17C174.215 13.3 173.045 13.326 172.291 13.326H167.637H167.143C166.233 13.326 166.025 13.014 166.025 12.104V5.422H174.839V3.966H163.321V5.422H164.127V12.052ZM169.509 23.908H180.039V22.634H169.509V23.908ZM175.983 18.214H173.721V17.2H175.983V18.214ZM181.703 19.592V20.684C181.599 20.71 181.495 20.71 181.313 20.71H178.713C178.011 20.71 177.881 20.632 177.881 20.138V19.592H181.703ZM167.481 24.74V19.592H171.693C171.329 20.242 170.263 20.788 167.481 21.048C167.845 21.386 168.313 22.036 168.521 22.426C172.109 21.88 173.383 20.918 173.669 19.592H175.983V20.112C175.983 21.568 176.477 21.906 178.505 21.906H181.573H181.703V24.74H167.481ZM186.461 17.2V15.588H162.697V17.2H171.823V18.214H165.297V27.002H167.481V26.118H181.703V27.002H183.965V18.214H177.881V17.2H186.461ZM209.939 8.412V10.96H199.903V8.412H209.939ZM199.721 13.066H210.199V11.09H212.253V6.306H206.585C206.299 5.396 205.623 4.018 204.999 2.978L202.763 3.628C203.205 4.408 203.673 5.474 203.985 6.306H197.667V11.09H199.721V13.066ZM195.821 4.148L195.483 4.252H189.685V27.002H191.817V6.41H194.651C194.183 8.126 193.481 10.31 192.831 12.026C194.547 13.976 194.963 15.718 194.963 17.044C194.963 17.798 194.807 18.448 194.443 18.734C194.235 18.864 194.001 18.942 193.689 18.942C193.325 18.968 192.857 18.942 192.363 18.916C192.701 19.514 192.883 20.424 192.909 21.022C193.507 21.022 194.157 21.022 194.625 20.97C195.171 20.892 195.639 20.736 196.029 20.45C196.783 19.878 197.095 18.786 197.095 17.278C197.095 15.718 196.705 13.872 194.989 11.74C195.769 9.738 196.679 7.19 197.407 5.058L195.821 4.148ZM208.587 24.662C208.093 24.662 208.015 24.558 208.015 23.856V17.746H212.383V15.588H197.745V17.746H201.125C200.787 21.412 199.825 23.752 195.509 25.13C196.003 25.572 196.627 26.456 196.887 27.054C201.801 25.338 203.049 22.296 203.465 17.746H205.727V23.882C205.727 26.066 206.195 26.716 208.197 26.716H210.303C211.967 26.716 212.513 25.832 212.721 22.348C212.123 22.218 211.187 21.88 210.693 21.464C210.641 24.246 210.537 24.662 210.043 24.662H208.587ZM234.743 23.596H230.843V9.712H228.529V23.596H224.759V13.274H222.523V25.78H234.743V26.846H236.979V13.3H234.743V23.596ZM230.193 5.89C229.907 5.032 229.465 3.914 229.049 3.03L226.631 3.524C226.943 4.226 227.281 5.11 227.515 5.89H218.649V11.792C218.103 10.622 217.219 9.062 216.465 7.918L214.541 8.724C215.399 10.128 216.413 12.078 216.829 13.248L218.649 12.442V13.664C218.649 14.288 218.649 14.964 218.597 15.64C217.063 16.524 215.555 17.33 214.489 17.824L215.269 20.034C216.257 19.436 217.323 18.786 218.415 18.084C218.051 20.762 217.245 23.492 215.373 25.624C215.945 25.884 216.933 26.586 217.375 27.028C220.521 23.414 220.989 17.746 220.989 13.664V8.126H238.201V5.89H230.193ZM263.577 7.372V5.474H247.977C248.263 4.928 248.523 4.408 248.757 3.862L246.391 3.186C245.169 6.124 243.011 8.88 240.619 10.622C241.139 11.064 241.971 12.052 242.335 12.546C243.973 11.22 245.559 9.426 246.859 7.372H263.577ZM261.497 10.544V8.724H246.209V10.544H261.497ZM246.183 21.1C245.117 22.712 243.037 24.402 241.139 25.234C241.633 25.65 242.335 26.43 242.673 26.976C244.649 25.91 246.781 23.804 247.977 21.776L246.183 21.1ZM257.181 20.476V18.578H253.437C254.217 17.746 255.205 16.498 256.115 15.276L253.957 14.574C253.489 15.562 252.605 17.018 251.851 17.98L253.359 18.578H250.733V14.366H248.471V18.578H241.737V20.476H248.471V27.028H250.733V20.476H257.181ZM243.375 15.276C244.129 16.238 244.909 17.564 245.195 18.448L247.119 17.642C246.807 16.758 246.001 15.458 245.195 14.496L243.375 15.276ZM251.461 22.374C253.099 23.622 255.179 25.39 256.193 26.508L257.701 25.026C256.635 23.908 254.503 22.244 252.865 21.074L251.461 22.374ZM243.427 11.922V13.82H257.857C257.935 21.828 258.429 27.028 262.147 27.028C263.863 27.028 264.357 25.78 264.539 22.452C264.045 22.088 263.421 21.49 262.927 20.944C262.901 23.154 262.771 24.636 262.277 24.636C260.457 24.636 260.223 19.54 260.275 11.922H243.427ZM279.801 16.394V10.102H286.561V16.394H279.801ZM270.545 16.394V10.102H277.279V16.394H270.545ZM279.801 7.736V3.212H277.279V7.736H268.127V20.294H270.545V18.76H277.279V27.028H279.801V18.76H286.561V20.164H289.083V7.736H279.801ZM300.393 5.5C302.811 7.164 305.905 9.686 307.335 11.298L309.129 9.452C307.595 7.814 304.423 5.474 302.031 3.888L300.393 5.5ZM311.053 12.338C312.457 15.406 313.835 19.488 314.303 22.14L316.721 21.126C316.175 18.474 314.797 14.548 313.289 11.454L311.053 12.338ZM294.985 12.208C294.647 15.432 293.815 19.384 292.801 22.062L295.219 23.076C296.207 20.242 296.961 15.848 297.351 12.65L294.985 12.208ZM299.327 10.466V22.868C299.327 25.728 300.185 26.56 303.227 26.56H308.037C311.053 26.56 311.755 25.078 312.041 20.19C311.417 20.034 310.351 19.592 309.779 19.15C309.597 23.44 309.363 24.298 307.881 24.298H303.487C302.109 24.298 301.823 24.09 301.823 22.868V10.466H299.327Z" fill="white"/>
<path d="M65.2609 37.3262V38.3994H59.8742V37.3262H65.2609ZM60.0793 33.0469V43H58.7599V33.0469H60.0793ZM66.4094 33.0469V43H65.0969V33.0469H66.4094ZM71.632 43.1367C71.117 43.1367 70.6499 43.0501 70.2307 42.877C69.8159 42.6992 69.4582 42.4508 69.1574 42.1318C68.8612 41.8128 68.6333 41.4346 68.4738 40.9971C68.3143 40.5596 68.2346 40.0811 68.2346 39.5615V39.2744C68.2346 38.6729 68.3234 38.1374 68.5012 37.668C68.6789 37.194 68.9204 36.793 69.2258 36.4648C69.5311 36.1367 69.8775 35.8883 70.2648 35.7197C70.6522 35.5511 71.0532 35.4668 71.468 35.4668C71.9966 35.4668 72.4523 35.5579 72.8351 35.7402C73.2225 35.9225 73.5392 36.1777 73.7853 36.5059C74.0314 36.8294 74.2137 37.2122 74.3322 37.6543C74.4507 38.0918 74.5099 38.5703 74.5099 39.0898V39.6572H68.9865V38.625H73.2453V38.5293C73.2271 38.2012 73.1587 37.8822 73.0402 37.5723C72.9263 37.2624 72.744 37.0072 72.4933 36.8066C72.2427 36.6061 71.9009 36.5059 71.468 36.5059C71.1808 36.5059 70.9165 36.5674 70.675 36.6904C70.4335 36.8089 70.2261 36.9867 70.0529 37.2236C69.8797 37.4606 69.7453 37.75 69.6496 38.0918C69.5539 38.4336 69.506 38.8278 69.506 39.2744V39.5615C69.506 39.9124 69.5539 40.2428 69.6496 40.5527C69.7499 40.8581 69.8934 41.127 70.0803 41.3594C70.2717 41.5918 70.5018 41.7741 70.7707 41.9062C71.0441 42.0384 71.354 42.1045 71.7004 42.1045C72.147 42.1045 72.5252 42.0133 72.8351 41.8311C73.145 41.6488 73.4162 41.4049 73.6486 41.0996L74.4142 41.708C74.2547 41.9495 74.0519 42.1797 73.8058 42.3984C73.5598 42.6172 73.2567 42.7949 72.8967 42.9316C72.5412 43.0684 72.1196 43.1367 71.632 43.1367ZM77.2512 36.7656V43H75.9865V35.6035H77.217L77.2512 36.7656ZM79.5617 35.5625L79.5549 36.7383C79.4501 36.7155 79.3498 36.7018 79.2541 36.6973C79.1629 36.6882 79.0581 36.6836 78.9396 36.6836C78.648 36.6836 78.3905 36.7292 78.1672 36.8203C77.9439 36.9115 77.7547 37.0391 77.5998 37.2031C77.4448 37.3672 77.3218 37.5632 77.2307 37.791C77.1441 38.0143 77.0871 38.2604 77.0598 38.5293L76.7043 38.7344C76.7043 38.2878 76.7476 37.8685 76.8342 37.4766C76.9253 37.0846 77.0643 36.7383 77.2512 36.4375C77.438 36.1322 77.675 35.8952 77.9621 35.7266C78.2538 35.5534 78.6001 35.4668 79.0012 35.4668C79.0923 35.4668 79.1971 35.4782 79.3156 35.501C79.4341 35.5192 79.5161 35.5397 79.5617 35.5625ZM81.9953 37.1826V43H80.7307V35.6035H81.9269L81.9953 37.1826ZM81.6945 39.0215L81.1682 39.001C81.1727 38.4951 81.2479 38.028 81.3937 37.5996C81.5396 37.1667 81.7446 36.7907 82.009 36.4717C82.2733 36.1527 82.5877 35.9066 82.9523 35.7334C83.3215 35.5557 83.7293 35.4668 84.176 35.4668C84.5405 35.4668 84.8687 35.5169 85.1603 35.6172C85.452 35.7129 85.7004 35.8678 85.9055 36.082C86.1151 36.2962 86.2746 36.5742 86.384 36.916C86.4933 37.2533 86.548 37.6657 86.548 38.1533V43H85.2766V38.1396C85.2766 37.7523 85.2196 37.4424 85.1057 37.21C84.9917 36.973 84.8254 36.8021 84.6066 36.6973C84.3879 36.5879 84.119 36.5332 83.8 36.5332C83.4855 36.5332 83.1984 36.5993 82.9387 36.7314C82.6835 36.8636 82.4624 37.0459 82.2756 37.2783C82.0933 37.5107 81.9497 37.7773 81.8449 38.0781C81.7446 38.3743 81.6945 38.6888 81.6945 39.0215ZM89.843 35.6035V43H88.5715V35.6035H89.843ZM88.4758 33.6416C88.4758 33.4365 88.5373 33.2633 88.6603 33.1221C88.7879 32.9808 88.9748 32.9102 89.2209 32.9102C89.4624 32.9102 89.647 32.9808 89.7746 33.1221C89.9068 33.2633 89.9728 33.4365 89.9728 33.6416C89.9728 33.8376 89.9068 34.0062 89.7746 34.1475C89.647 34.2842 89.4624 34.3525 89.2209 34.3525C88.9748 34.3525 88.7879 34.2842 88.6603 34.1475C88.5373 34.0062 88.4758 33.8376 88.4758 33.6416ZM96.2346 41.7354V37.9277C96.2346 37.6361 96.1753 37.3831 96.0568 37.1689C95.9429 36.9502 95.7697 36.7816 95.5373 36.6631C95.3049 36.5446 95.0178 36.4854 94.676 36.4854C94.357 36.4854 94.0767 36.54 93.8351 36.6494C93.5982 36.7588 93.4113 36.9023 93.2746 37.0801C93.1424 37.2578 93.0764 37.4492 93.0764 37.6543H91.8117C91.8117 37.39 91.8801 37.1279 92.0168 36.8682C92.1535 36.6084 92.3495 36.3737 92.6047 36.1641C92.8644 35.9499 93.1743 35.7812 93.5344 35.6582C93.8989 35.5306 94.3045 35.4668 94.7512 35.4668C95.2889 35.4668 95.7629 35.5579 96.173 35.7402C96.5877 35.9225 96.9113 36.1982 97.1437 36.5674C97.3807 36.932 97.4992 37.39 97.4992 37.9414V41.3867C97.4992 41.6328 97.5197 41.8949 97.5607 42.1729C97.6063 42.4508 97.6724 42.6901 97.759 42.8906V43H96.4396C96.3758 42.8542 96.3257 42.6605 96.2892 42.4189C96.2528 42.1729 96.2346 41.945 96.2346 41.7354ZM96.4533 38.5156L96.467 39.4043H95.1887C94.8286 39.4043 94.5073 39.4339 94.2248 39.4932C93.9422 39.5479 93.7053 39.6322 93.5139 39.7461C93.3224 39.86 93.1766 40.0036 93.0764 40.1768C92.9761 40.3454 92.926 40.5436 92.926 40.7715C92.926 41.0039 92.9784 41.2158 93.0832 41.4072C93.188 41.5986 93.3452 41.7513 93.5549 41.8652C93.7691 41.9746 94.0311 42.0293 94.341 42.0293C94.7284 42.0293 95.0702 41.9473 95.3664 41.7832C95.6626 41.6191 95.8973 41.4186 96.0705 41.1816C96.2482 40.9447 96.3439 40.7145 96.3576 40.4912L96.8976 41.0996C96.8657 41.291 96.7792 41.5029 96.6379 41.7354C96.4966 41.9678 96.3075 42.1911 96.0705 42.4053C95.8381 42.6149 95.5601 42.7904 95.2365 42.9316C94.9175 43.0684 94.5575 43.1367 94.1564 43.1367C93.6551 43.1367 93.2154 43.0387 92.8371 42.8428C92.4634 42.6468 92.1717 42.3848 91.9621 42.0566C91.757 41.724 91.6545 41.3525 91.6545 40.9424C91.6545 40.5459 91.732 40.1973 91.8869 39.8965C92.0418 39.5911 92.2652 39.3382 92.5568 39.1377C92.8485 38.9326 93.1994 38.7777 93.6096 38.6729C94.0197 38.568 94.4777 38.5156 94.9836 38.5156H96.4533ZM103.795 41.0381C103.795 40.8558 103.754 40.6872 103.672 40.5322C103.595 40.3727 103.433 40.2292 103.187 40.1016C102.945 39.9694 102.581 39.8555 102.093 39.7598C101.683 39.6732 101.311 39.5706 100.979 39.4521C100.651 39.3337 100.37 39.1901 100.138 39.0215C99.91 38.8529 99.7346 38.6546 99.6115 38.4268C99.4885 38.1989 99.4269 37.9323 99.4269 37.627C99.4269 37.3353 99.4907 37.0596 99.6183 36.7998C99.7505 36.54 99.9351 36.3099 100.172 36.1094C100.414 35.9089 100.703 35.7516 101.04 35.6377C101.377 35.5238 101.753 35.4668 102.168 35.4668C102.761 35.4668 103.266 35.5716 103.686 35.7812C104.105 35.9909 104.426 36.2712 104.65 36.6221C104.873 36.9684 104.985 37.3535 104.985 37.7773H103.72C103.72 37.5723 103.658 37.374 103.535 37.1826C103.417 36.9867 103.241 36.8249 103.009 36.6973C102.781 36.5697 102.501 36.5059 102.168 36.5059C101.817 36.5059 101.532 36.5605 101.314 36.6699C101.099 36.7747 100.942 36.9092 100.842 37.0732C100.746 37.2373 100.698 37.4105 100.698 37.5928C100.698 37.7295 100.721 37.8525 100.767 37.9619C100.817 38.0667 100.904 38.1647 101.027 38.2559C101.15 38.3424 101.323 38.4245 101.546 38.502C101.769 38.5794 102.054 38.6569 102.401 38.7344C103.007 38.8711 103.506 39.0352 103.898 39.2266C104.29 39.418 104.581 39.6527 104.773 39.9307C104.964 40.2087 105.06 40.5459 105.06 40.9424C105.06 41.266 104.991 41.5622 104.855 41.8311C104.723 42.0999 104.529 42.3324 104.274 42.5283C104.023 42.7197 103.722 42.8701 103.371 42.9795C103.025 43.0843 102.635 43.1367 102.202 43.1367C101.551 43.1367 100.999 43.0205 100.548 42.7881C100.097 42.5557 99.7551 42.2549 99.5226 41.8857C99.2902 41.5166 99.174 41.127 99.174 40.7168H100.445C100.464 41.0632 100.564 41.3389 100.746 41.5439C100.929 41.7445 101.152 41.888 101.416 41.9746C101.681 42.0566 101.943 42.0977 102.202 42.0977C102.549 42.0977 102.838 42.0521 103.07 41.9609C103.307 41.8698 103.487 41.7445 103.611 41.585C103.734 41.4255 103.795 41.2432 103.795 41.0381ZM116.394 39.835H117.706C117.638 40.4639 117.458 41.0267 117.166 41.5234C116.875 42.0202 116.462 42.4144 115.929 42.7061C115.396 42.9932 114.73 43.1367 113.933 43.1367C113.349 43.1367 112.819 43.0273 112.34 42.8086C111.866 42.5898 111.458 42.2799 111.116 41.8789C110.775 41.4733 110.51 40.988 110.323 40.4229C110.141 39.8532 110.05 39.2197 110.05 38.5225V37.5312C110.05 36.834 110.141 36.2028 110.323 35.6377C110.51 35.068 110.777 34.5804 111.123 34.1748C111.474 33.7692 111.896 33.457 112.388 33.2383C112.88 33.0195 113.434 32.9102 114.049 32.9102C114.801 32.9102 115.437 33.0514 115.956 33.334C116.476 33.6165 116.879 34.0085 117.166 34.5098C117.458 35.0065 117.638 35.583 117.706 36.2393H116.394C116.33 35.7744 116.211 35.3757 116.038 35.043C115.865 34.7057 115.619 34.446 115.3 34.2637C114.981 34.0814 114.564 33.9902 114.049 33.9902C113.607 33.9902 113.217 34.0745 112.88 34.2432C112.547 34.4118 112.267 34.651 112.039 34.9609C111.816 35.2708 111.647 35.6423 111.533 36.0752C111.419 36.5081 111.362 36.9889 111.362 37.5176V38.5225C111.362 39.0101 111.413 39.4681 111.513 39.8965C111.618 40.3249 111.775 40.7008 111.985 41.0244C112.194 41.348 112.461 41.6032 112.784 41.79C113.108 41.9723 113.491 42.0635 113.933 42.0635C114.493 42.0635 114.94 41.9746 115.273 41.7969C115.605 41.6191 115.856 41.3639 116.025 41.0312C116.198 40.6986 116.321 40.2998 116.394 39.835ZM122.382 43.1367C121.867 43.1367 121.4 43.0501 120.981 42.877C120.566 42.6992 120.208 42.4508 119.907 42.1318C119.611 41.8128 119.383 41.4346 119.224 40.9971C119.064 40.5596 118.985 40.0811 118.985 39.5615V39.2744C118.985 38.6729 119.073 38.1374 119.251 37.668C119.429 37.194 119.67 36.793 119.976 36.4648C120.281 36.1367 120.627 35.8883 121.015 35.7197C121.402 35.5511 121.803 35.4668 122.218 35.4668C122.747 35.4668 123.202 35.5579 123.585 35.7402C123.973 35.9225 124.289 36.1777 124.535 36.5059C124.781 36.8294 124.964 37.2122 125.082 37.6543C125.201 38.0918 125.26 38.5703 125.26 39.0898V39.6572H119.737V38.625H123.995V38.5293C123.977 38.2012 123.909 37.8822 123.79 37.5723C123.676 37.2624 123.494 37.0072 123.243 36.8066C122.993 36.6061 122.651 36.5059 122.218 36.5059C121.931 36.5059 121.667 36.5674 121.425 36.6904C121.183 36.8089 120.976 36.9867 120.803 37.2236C120.63 37.4606 120.495 37.75 120.4 38.0918C120.304 38.4336 120.256 38.8278 120.256 39.2744V39.5615C120.256 39.9124 120.304 40.2428 120.4 40.5527C120.5 40.8581 120.643 41.127 120.83 41.3594C121.022 41.5918 121.252 41.7741 121.521 41.9062C121.794 42.0384 122.104 42.1045 122.45 42.1045C122.897 42.1045 123.275 42.0133 123.585 41.8311C123.895 41.6488 124.166 41.4049 124.399 41.0996L125.164 41.708C125.005 41.9495 124.802 42.1797 124.556 42.3984C124.31 42.6172 124.007 42.7949 123.647 42.9316C123.291 43.0684 122.87 43.1367 122.382 43.1367ZM128.001 37.1826V43H126.737V35.6035H127.933L128.001 37.1826ZM127.7 39.0215L127.174 39.001C127.179 38.4951 127.254 38.028 127.4 37.5996C127.545 37.1667 127.751 36.7907 128.015 36.4717C128.279 36.1527 128.594 35.9066 128.958 35.7334C129.327 35.5557 129.735 35.4668 130.182 35.4668C130.546 35.4668 130.875 35.5169 131.166 35.6172C131.458 35.7129 131.706 35.8678 131.911 36.082C132.121 36.2962 132.28 36.5742 132.39 36.916C132.499 37.2533 132.554 37.6657 132.554 38.1533V43H131.282V38.1396C131.282 37.7523 131.225 37.4424 131.112 37.21C130.998 36.973 130.831 36.8021 130.612 36.6973C130.394 36.5879 130.125 36.5332 129.806 36.5332C129.491 36.5332 129.204 36.5993 128.945 36.7314C128.689 36.8636 128.468 37.0459 128.281 37.2783C128.099 37.5107 127.956 37.7773 127.851 38.0781C127.751 38.3743 127.7 38.6888 127.7 39.0215ZM137.571 35.6035V36.5742H133.572V35.6035H137.571ZM134.926 33.8057H136.191V41.168C136.191 41.4186 136.229 41.6077 136.307 41.7354C136.384 41.863 136.485 41.9473 136.608 41.9883C136.731 42.0293 136.863 42.0498 137.004 42.0498C137.109 42.0498 137.218 42.0407 137.332 42.0225C137.451 41.9997 137.54 41.9814 137.599 41.9678L137.606 43C137.505 43.0319 137.373 43.0615 137.209 43.0889C137.05 43.1208 136.856 43.1367 136.628 43.1367C136.318 43.1367 136.033 43.0752 135.774 42.9521C135.514 42.8291 135.306 42.624 135.152 42.3369C135.001 42.0452 134.926 41.6533 134.926 41.1611V33.8057ZM142.124 43.1367C141.609 43.1367 141.142 43.0501 140.723 42.877C140.308 42.6992 139.95 42.4508 139.65 42.1318C139.353 41.8128 139.126 41.4346 138.966 40.9971C138.806 40.5596 138.727 40.0811 138.727 39.5615V39.2744C138.727 38.6729 138.816 38.1374 138.993 37.668C139.171 37.194 139.413 36.793 139.718 36.4648C140.023 36.1367 140.37 35.8883 140.757 35.7197C141.144 35.5511 141.545 35.4668 141.96 35.4668C142.489 35.4668 142.945 35.5579 143.327 35.7402C143.715 35.9225 144.031 36.1777 144.278 36.5059C144.524 36.8294 144.706 37.2122 144.824 37.6543C144.943 38.0918 145.002 38.5703 145.002 39.0898V39.6572H139.479V38.625H143.737V38.5293C143.719 38.2012 143.651 37.8822 143.532 37.5723C143.418 37.2624 143.236 37.0072 142.986 36.8066C142.735 36.6061 142.393 36.5059 141.96 36.5059C141.673 36.5059 141.409 36.5674 141.167 36.6904C140.926 36.8089 140.718 36.9867 140.545 37.2236C140.372 37.4606 140.237 37.75 140.142 38.0918C140.046 38.4336 139.998 38.8278 139.998 39.2744V39.5615C139.998 39.9124 140.046 40.2428 140.142 40.5527C140.242 40.8581 140.386 41.127 140.572 41.3594C140.764 41.5918 140.994 41.7741 141.263 41.9062C141.536 42.0384 141.846 42.1045 142.193 42.1045C142.639 42.1045 143.017 42.0133 143.327 41.8311C143.637 41.6488 143.908 41.4049 144.141 41.0996L144.906 41.708C144.747 41.9495 144.544 42.1797 144.298 42.3984C144.052 42.6172 143.749 42.7949 143.389 42.9316C143.033 43.0684 142.612 43.1367 142.124 43.1367ZM147.743 36.7656V43H146.479V35.6035H147.709L147.743 36.7656ZM150.054 35.5625L150.047 36.7383C149.942 36.7155 149.842 36.7018 149.746 36.6973C149.655 36.6882 149.55 36.6836 149.432 36.6836C149.14 36.6836 148.883 36.7292 148.659 36.8203C148.436 36.9115 148.247 37.0391 148.092 37.2031C147.937 37.3672 147.814 37.5632 147.723 37.791C147.636 38.0143 147.579 38.2604 147.552 38.5293L147.196 38.7344C147.196 38.2878 147.24 37.8685 147.326 37.4766C147.418 37.0846 147.556 36.7383 147.743 36.4375C147.93 36.1322 148.167 35.8952 148.454 35.7266C148.746 35.5534 149.092 35.4668 149.493 35.4668C149.584 35.4668 149.689 35.4782 149.808 35.501C149.926 35.5192 150.008 35.5397 150.054 35.5625ZM154.361 39.3838V39.2266C154.361 38.6934 154.438 38.1989 154.593 37.7432C154.748 37.2829 154.971 36.8841 155.263 36.5469C155.555 36.2051 155.908 35.9408 156.322 35.7539C156.737 35.5625 157.202 35.4668 157.717 35.4668C158.237 35.4668 158.704 35.5625 159.118 35.7539C159.538 35.9408 159.893 36.2051 160.185 36.5469C160.481 36.8841 160.707 37.2829 160.862 37.7432C161.016 38.1989 161.094 38.6934 161.094 39.2266V39.3838C161.094 39.917 161.016 40.4115 160.862 40.8672C160.707 41.3229 160.481 41.7217 160.185 42.0635C159.893 42.4007 159.54 42.665 159.125 42.8564C158.715 43.0433 158.25 43.1367 157.731 43.1367C157.211 43.1367 156.744 43.0433 156.329 42.8564C155.915 42.665 155.559 42.4007 155.263 42.0635C154.971 41.7217 154.748 41.3229 154.593 40.8672C154.438 40.4115 154.361 39.917 154.361 39.3838ZM155.625 39.2266V39.3838C155.625 39.7529 155.668 40.1016 155.755 40.4297C155.842 40.7533 155.972 41.0404 156.145 41.291C156.322 41.5417 156.543 41.7399 156.808 41.8857C157.072 42.027 157.38 42.0977 157.731 42.0977C158.077 42.0977 158.38 42.027 158.64 41.8857C158.904 41.7399 159.123 41.5417 159.296 41.291C159.469 41.0404 159.599 40.7533 159.686 40.4297C159.777 40.1016 159.822 39.7529 159.822 39.3838V39.2266C159.822 38.862 159.777 38.5179 159.686 38.1943C159.599 37.8662 159.467 37.5768 159.289 37.3262C159.116 37.071 158.897 36.8704 158.633 36.7246C158.373 36.5788 158.068 36.5059 157.717 36.5059C157.371 36.5059 157.065 36.5788 156.801 36.7246C156.541 36.8704 156.322 37.071 156.145 37.3262C155.972 37.5768 155.842 37.8662 155.755 38.1943C155.668 38.5179 155.625 38.862 155.625 39.2266ZM164.567 43H163.302V34.8242C163.302 34.291 163.398 33.8421 163.589 33.4775C163.785 33.1084 164.065 32.8304 164.43 32.6436C164.794 32.4521 165.227 32.3564 165.729 32.3564C165.875 32.3564 166.02 32.3656 166.166 32.3838C166.317 32.402 166.462 32.4294 166.604 32.4658L166.535 33.498C166.44 33.4753 166.33 33.4593 166.207 33.4502C166.089 33.4411 165.97 33.4365 165.852 33.4365C165.583 33.4365 165.35 33.4912 165.154 33.6006C164.963 33.7054 164.817 33.8604 164.717 34.0654C164.617 34.2705 164.567 34.5234 164.567 34.8242V43ZM166.139 35.6035V36.5742H162.133V35.6035H166.139ZM177.22 39.835H178.532C178.464 40.4639 178.284 41.0267 177.992 41.5234C177.701 42.0202 177.288 42.4144 176.755 42.7061C176.222 42.9932 175.556 43.1367 174.759 43.1367C174.176 43.1367 173.645 43.0273 173.166 42.8086C172.692 42.5898 172.284 42.2799 171.943 41.8789C171.601 41.4733 171.336 40.988 171.15 40.4229C170.967 39.8532 170.876 39.2197 170.876 38.5225V37.5312C170.876 36.834 170.967 36.2028 171.15 35.6377C171.336 35.068 171.603 34.5804 171.949 34.1748C172.3 33.7692 172.722 33.457 173.214 33.2383C173.706 33.0195 174.26 32.9102 174.875 32.9102C175.627 32.9102 176.263 33.0514 176.782 33.334C177.302 33.6165 177.705 34.0085 177.992 34.5098C178.284 35.0065 178.464 35.583 178.532 36.2393H177.22C177.156 35.7744 177.038 35.3757 176.864 35.043C176.691 34.7057 176.445 34.446 176.126 34.2637C175.807 34.0814 175.39 33.9902 174.875 33.9902C174.433 33.9902 174.043 34.0745 173.706 34.2432C173.374 34.4118 173.093 34.651 172.865 34.9609C172.642 35.2708 172.473 35.6423 172.36 36.0752C172.246 36.5081 172.189 36.9889 172.189 37.5176V38.5225C172.189 39.0101 172.239 39.4681 172.339 39.8965C172.444 40.3249 172.601 40.7008 172.811 41.0244C173.02 41.348 173.287 41.6032 173.611 41.79C173.934 41.9723 174.317 42.0635 174.759 42.0635C175.32 42.0635 175.766 41.9746 176.099 41.7969C176.431 41.6191 176.682 41.3639 176.851 41.0312C177.024 40.6986 177.147 40.2998 177.22 39.835ZM183.208 43.1367C182.693 43.1367 182.226 43.0501 181.807 42.877C181.392 42.6992 181.034 42.4508 180.734 42.1318C180.437 41.8128 180.209 41.4346 180.05 40.9971C179.89 40.5596 179.811 40.0811 179.811 39.5615V39.2744C179.811 38.6729 179.9 38.1374 180.077 37.668C180.255 37.194 180.497 36.793 180.802 36.4648C181.107 36.1367 181.454 35.8883 181.841 35.7197C182.228 35.5511 182.629 35.4668 183.044 35.4668C183.573 35.4668 184.029 35.5579 184.411 35.7402C184.799 35.9225 185.115 36.1777 185.362 36.5059C185.608 36.8294 185.79 37.2122 185.908 37.6543C186.027 38.0918 186.086 38.5703 186.086 39.0898V39.6572H180.563V38.625H184.821V38.5293C184.803 38.2012 184.735 37.8822 184.616 37.5723C184.502 37.2624 184.32 37.0072 184.07 36.8066C183.819 36.6061 183.477 36.5059 183.044 36.5059C182.757 36.5059 182.493 36.5674 182.251 36.6904C182.01 36.8089 181.802 36.9867 181.629 37.2236C181.456 37.4606 181.321 37.75 181.226 38.0918C181.13 38.4336 181.082 38.8278 181.082 39.2744V39.5615C181.082 39.9124 181.13 40.2428 181.226 40.5527C181.326 40.8581 181.47 41.127 181.656 41.3594C181.848 41.5918 182.078 41.7741 182.347 41.9062C182.62 42.0384 182.93 42.1045 183.277 42.1045C183.723 42.1045 184.101 42.0133 184.411 41.8311C184.721 41.6488 184.992 41.4049 185.225 41.0996L185.99 41.708C185.831 41.9495 185.628 42.1797 185.382 42.3984C185.136 42.6172 184.833 42.7949 184.473 42.9316C184.117 43.0684 183.696 43.1367 183.208 43.1367ZM188.827 37.1826V43H187.563V35.6035H188.759L188.827 37.1826ZM188.527 39.0215L188 39.001C188.005 38.4951 188.08 38.028 188.226 37.5996C188.372 37.1667 188.577 36.7907 188.841 36.4717C189.105 36.1527 189.42 35.9066 189.784 35.7334C190.154 35.5557 190.561 35.4668 191.008 35.4668C191.373 35.4668 191.701 35.5169 191.992 35.6172C192.284 35.7129 192.532 35.8678 192.737 36.082C192.947 36.2962 193.107 36.5742 193.216 36.916C193.325 37.2533 193.38 37.6657 193.38 38.1533V43H192.109V38.1396C192.109 37.7523 192.052 37.4424 191.938 37.21C191.824 36.973 191.657 36.8021 191.439 36.6973C191.22 36.5879 190.951 36.5332 190.632 36.5332C190.318 36.5332 190.03 36.5993 189.771 36.7314C189.515 36.8636 189.294 37.0459 189.108 37.2783C188.925 37.5107 188.782 37.7773 188.677 38.0781C188.577 38.3743 188.527 38.6888 188.527 39.0215ZM198.398 35.6035V36.5742H194.399V35.6035H198.398ZM195.752 33.8057H197.017V41.168C197.017 41.4186 197.056 41.6077 197.133 41.7354C197.21 41.863 197.311 41.9473 197.434 41.9883C197.557 42.0293 197.689 42.0498 197.83 42.0498C197.935 42.0498 198.044 42.0407 198.158 42.0225C198.277 41.9997 198.366 41.9814 198.425 41.9678L198.432 43C198.332 43.0319 198.199 43.0615 198.035 43.0889C197.876 43.1208 197.682 43.1367 197.454 43.1367C197.144 43.1367 196.86 43.0752 196.6 42.9521C196.34 42.8291 196.133 42.624 195.978 42.3369C195.827 42.0452 195.752 41.6533 195.752 41.1611V33.8057ZM201.146 36.7656V43H199.881V35.6035H201.112L201.146 36.7656ZM203.456 35.5625L203.449 36.7383C203.345 36.7155 203.244 36.7018 203.149 36.6973C203.057 36.6882 202.953 36.6836 202.834 36.6836C202.543 36.6836 202.285 36.7292 202.062 36.8203C201.838 36.9115 201.649 37.0391 201.494 37.2031C201.339 37.3672 201.216 37.5632 201.125 37.791C201.039 38.0143 200.982 38.2604 200.954 38.5293L200.599 38.7344C200.599 38.2878 200.642 37.8685 200.729 37.4766C200.82 37.0846 200.959 36.7383 201.146 36.4375C201.333 36.1322 201.57 35.8952 201.857 35.7266C202.148 35.5534 202.495 35.4668 202.896 35.4668C202.987 35.4668 203.092 35.4782 203.21 35.501C203.329 35.5192 203.411 35.5397 203.456 35.5625ZM208.713 41.7354V37.9277C208.713 37.6361 208.654 37.3831 208.535 37.1689C208.421 36.9502 208.248 36.7816 208.016 36.6631C207.783 36.5446 207.496 36.4854 207.154 36.4854C206.835 36.4854 206.555 36.54 206.314 36.6494C206.077 36.7588 205.89 36.9023 205.753 37.0801C205.621 37.2578 205.555 37.4492 205.555 37.6543H204.29C204.29 37.39 204.359 37.1279 204.495 36.8682C204.632 36.6084 204.828 36.3737 205.083 36.1641C205.343 35.9499 205.653 35.7812 206.013 35.6582C206.377 35.5306 206.783 35.4668 207.23 35.4668C207.767 35.4668 208.241 35.5579 208.652 35.7402C209.066 35.9225 209.39 36.1982 209.622 36.5674C209.859 36.932 209.978 37.39 209.978 37.9414V41.3867C209.978 41.6328 209.998 41.8949 210.039 42.1729C210.085 42.4508 210.151 42.6901 210.237 42.8906V43H208.918C208.854 42.8542 208.804 42.6605 208.768 42.4189C208.731 42.1729 208.713 41.945 208.713 41.7354ZM208.932 38.5156L208.945 39.4043H207.667C207.307 39.4043 206.986 39.4339 206.703 39.4932C206.421 39.5479 206.184 39.6322 205.992 39.7461C205.801 39.86 205.655 40.0036 205.555 40.1768C205.455 40.3454 205.404 40.5436 205.404 40.7715C205.404 41.0039 205.457 41.2158 205.562 41.4072C205.667 41.5986 205.824 41.7513 206.033 41.8652C206.248 41.9746 206.51 42.0293 206.82 42.0293C207.207 42.0293 207.549 41.9473 207.845 41.7832C208.141 41.6191 208.376 41.4186 208.549 41.1816C208.727 40.9447 208.822 40.7145 208.836 40.4912L209.376 41.0996C209.344 41.291 209.258 41.5029 209.116 41.7354C208.975 41.9678 208.786 42.1911 208.549 42.4053C208.317 42.6149 208.039 42.7904 207.715 42.9316C207.396 43.0684 207.036 43.1367 206.635 43.1367C206.134 43.1367 205.694 43.0387 205.316 42.8428C204.942 42.6468 204.65 42.3848 204.441 42.0566C204.236 41.724 204.133 41.3525 204.133 40.9424C204.133 40.5459 204.21 40.1973 204.365 39.8965C204.52 39.5911 204.744 39.3382 205.035 39.1377C205.327 38.9326 205.678 38.7777 206.088 38.6729C206.498 38.568 206.956 38.5156 207.462 38.5156H208.932ZM213.341 32.5V43H212.07V32.5H213.341ZM225.044 39.835H226.357C226.288 40.4639 226.108 41.0267 225.817 41.5234C225.525 42.0202 225.112 42.4144 224.579 42.7061C224.046 42.9932 223.381 43.1367 222.583 43.1367C222 43.1367 221.469 43.0273 220.99 42.8086C220.516 42.5898 220.109 42.2799 219.767 41.8789C219.425 41.4733 219.161 40.988 218.974 40.4229C218.792 39.8532 218.7 39.2197 218.7 38.5225V37.5312C218.7 36.834 218.792 36.2028 218.974 35.6377C219.161 35.068 219.427 34.5804 219.774 34.1748C220.125 33.7692 220.546 33.457 221.038 33.2383C221.53 33.0195 222.084 32.9102 222.699 32.9102C223.451 32.9102 224.087 33.0514 224.607 33.334C225.126 33.6165 225.529 34.0085 225.817 34.5098C226.108 35.0065 226.288 35.583 226.357 36.2393H225.044C224.98 35.7744 224.862 35.3757 224.689 35.043C224.515 34.7057 224.269 34.446 223.95 34.2637C223.631 34.0814 223.214 33.9902 222.699 33.9902C222.257 33.9902 221.868 34.0745 221.53 34.2432C221.198 34.4118 220.918 34.651 220.69 34.9609C220.466 35.2708 220.298 35.6423 220.184 36.0752C220.07 36.5081 220.013 36.9889 220.013 37.5176V38.5225C220.013 39.0101 220.063 39.4681 220.163 39.8965C220.268 40.3249 220.425 40.7008 220.635 41.0244C220.845 41.348 221.111 41.6032 221.435 41.79C221.758 41.9723 222.141 42.0635 222.583 42.0635C223.144 42.0635 223.59 41.9746 223.923 41.7969C224.256 41.6191 224.506 41.3639 224.675 41.0312C224.848 40.6986 224.971 40.2998 225.044 39.835ZM229.337 32.5V43H228.066V32.5H229.337ZM232.741 35.6035V43H231.47V35.6035H232.741ZM231.374 33.6416C231.374 33.4365 231.436 33.2633 231.559 33.1221C231.686 32.9808 231.873 32.9102 232.119 32.9102C232.361 32.9102 232.545 32.9808 232.673 33.1221C232.805 33.2633 232.871 33.4365 232.871 33.6416C232.871 33.8376 232.805 34.0062 232.673 34.1475C232.545 34.2842 232.361 34.3525 232.119 34.3525C231.873 34.3525 231.686 34.2842 231.559 34.1475C231.436 34.0062 231.374 33.8376 231.374 33.6416ZM236.036 37.1826V43H234.772V35.6035H235.968L236.036 37.1826ZM235.736 39.0215L235.209 39.001C235.214 38.4951 235.289 38.028 235.435 37.5996C235.581 37.1667 235.786 36.7907 236.05 36.4717C236.314 36.1527 236.629 35.9066 236.993 35.7334C237.362 35.5557 237.77 35.4668 238.217 35.4668C238.582 35.4668 238.91 35.5169 239.201 35.6172C239.493 35.7129 239.741 35.8678 239.946 36.082C240.156 36.2962 240.316 36.5742 240.425 36.916C240.534 37.2533 240.589 37.6657 240.589 38.1533V43H239.318V38.1396C239.318 37.7523 239.261 37.4424 239.147 37.21C239.033 36.973 238.866 36.8021 238.648 36.6973C238.429 36.5879 238.16 36.5332 237.841 36.5332C237.527 36.5332 237.239 36.5993 236.98 36.7314C236.724 36.8636 236.503 37.0459 236.317 37.2783C236.134 37.5107 235.991 37.7773 235.886 38.0781C235.786 38.3743 235.736 38.6888 235.736 39.0215ZM243.884 35.6035V43H242.612V35.6035H243.884ZM242.517 33.6416C242.517 33.4365 242.578 33.2633 242.701 33.1221C242.829 32.9808 243.016 32.9102 243.262 32.9102C243.503 32.9102 243.688 32.9808 243.816 33.1221C243.948 33.2633 244.014 33.4365 244.014 33.6416C244.014 33.8376 243.948 34.0062 243.816 34.1475C243.688 34.2842 243.503 34.3525 243.262 34.3525C243.016 34.3525 242.829 34.2842 242.701 34.1475C242.578 34.0062 242.517 33.8376 242.517 33.6416ZM248.874 42.0977C249.175 42.0977 249.453 42.0361 249.708 41.9131C249.963 41.79 250.173 41.6214 250.337 41.4072C250.501 41.1885 250.595 40.9401 250.617 40.6621H251.82C251.798 41.0996 251.65 41.5075 251.376 41.8857C251.107 42.2594 250.754 42.5625 250.317 42.7949C249.879 43.0228 249.398 43.1367 248.874 43.1367C248.318 43.1367 247.833 43.0387 247.418 42.8428C247.008 42.6468 246.666 42.3779 246.393 42.0361C246.124 41.6943 245.921 41.3024 245.784 40.8604C245.652 40.4137 245.586 39.9421 245.586 39.4453V39.1582C245.586 38.6615 245.652 38.1921 245.784 37.75C245.921 37.3034 246.124 36.9092 246.393 36.5674C246.666 36.2256 247.008 35.9567 247.418 35.7607C247.833 35.5648 248.318 35.4668 248.874 35.4668C249.453 35.4668 249.959 35.5853 250.392 35.8223C250.825 36.0547 251.164 36.3737 251.41 36.7793C251.661 37.1803 251.798 37.6361 251.82 38.1465H250.617C250.595 37.8411 250.508 37.5654 250.358 37.3193C250.212 37.0732 250.011 36.8773 249.756 36.7314C249.505 36.5811 249.211 36.5059 248.874 36.5059C248.487 36.5059 248.161 36.5833 247.897 36.7383C247.637 36.8887 247.43 37.0938 247.275 37.3535C247.124 37.6087 247.015 37.8936 246.946 38.208C246.883 38.5179 246.851 38.8346 246.851 39.1582V39.4453C246.851 39.7689 246.883 40.0879 246.946 40.4023C247.01 40.7168 247.117 41.0016 247.268 41.2568C247.423 41.512 247.63 41.7171 247.89 41.8721C248.154 42.0225 248.482 42.0977 248.874 42.0977ZM258.554 37.4766L260.044 36.417C260.331 36.221 260.552 36.0251 260.707 35.8291C260.867 35.6286 260.946 35.3551 260.946 35.0088C260.946 34.7399 260.842 34.4961 260.632 34.2773C260.422 34.054 260.126 33.9424 259.743 33.9424C259.479 33.9424 259.256 34.0039 259.073 34.127C258.891 34.25 258.754 34.4141 258.663 34.6191C258.572 34.8197 258.527 35.0407 258.527 35.2822C258.527 35.4873 258.577 35.6992 258.677 35.918C258.777 36.1367 258.916 36.3646 259.094 36.6016C259.272 36.8385 259.474 37.0892 259.702 37.3535L264.412 43H262.895L259.032 38.3789C258.691 37.9779 258.385 37.611 258.116 37.2783C257.848 36.9411 257.636 36.6152 257.481 36.3008C257.33 35.9863 257.255 35.6605 257.255 35.3232C257.255 34.8037 257.358 34.3662 257.563 34.0107C257.772 33.6507 258.064 33.3773 258.438 33.1904C258.811 33.0036 259.249 32.9102 259.75 32.9102C260.238 32.9102 260.657 33.0081 261.008 33.2041C261.363 33.3955 261.637 33.6507 261.828 33.9697C262.02 34.2842 262.115 34.6305 262.115 35.0088C262.115 35.3278 262.058 35.6149 261.945 35.8701C261.831 36.1208 261.671 36.3509 261.466 36.5605C261.265 36.7702 261.031 36.9753 260.762 37.1758L258.786 38.6455C258.458 38.887 258.219 39.1172 258.069 39.3359C257.918 39.5547 257.82 39.7484 257.775 39.917C257.734 40.0856 257.713 40.2201 257.713 40.3203C257.713 40.6439 257.784 40.9401 257.925 41.209C258.066 41.4779 258.28 41.6943 258.568 41.8584C258.859 42.0179 259.224 42.0977 259.661 42.0977C260.044 42.0977 260.416 42.0111 260.776 41.8379C261.14 41.6602 261.466 41.4095 261.753 41.0859C262.04 40.7578 262.268 40.3682 262.437 39.917C262.61 39.4613 262.696 38.9577 262.696 38.4062H263.831C263.831 38.8574 263.788 39.2835 263.701 39.6846C263.615 40.0856 263.48 40.4593 263.298 40.8057C263.12 41.1475 262.892 41.4596 262.614 41.7422C262.573 41.7832 262.542 41.8311 262.519 41.8857C262.496 41.9404 262.464 41.9883 262.423 42.0293C262.081 42.3984 261.66 42.6764 261.158 42.8633C260.662 43.0456 260.163 43.1367 259.661 43.1367C259.001 43.1367 258.429 43.016 257.945 42.7744C257.467 42.5329 257.098 42.2002 256.838 41.7764C256.578 41.3525 256.448 40.8672 256.448 40.3203C256.448 39.901 256.537 39.5319 256.715 39.2129C256.897 38.8939 257.146 38.5954 257.46 38.3174C257.779 38.0394 258.144 37.7591 258.554 37.4766ZM270.161 32.5V43H268.897V32.5H270.161ZM269.861 39.0215L269.334 39.001C269.339 38.4951 269.414 38.028 269.56 37.5996C269.706 37.1667 269.911 36.7907 270.175 36.4717C270.439 36.1527 270.754 35.9066 271.118 35.7334C271.487 35.5557 271.895 35.4668 272.342 35.4668C272.707 35.4668 273.035 35.5169 273.326 35.6172C273.618 35.7129 273.866 35.8678 274.071 36.082C274.281 36.2962 274.441 36.5742 274.55 36.916C274.659 37.2533 274.714 37.6657 274.714 38.1533V43H273.443V38.1396C273.443 37.7523 273.386 37.4424 273.272 37.21C273.158 36.973 272.991 36.8021 272.773 36.6973C272.554 36.5879 272.285 36.5332 271.966 36.5332C271.652 36.5332 271.364 36.5993 271.105 36.7314C270.849 36.8636 270.628 37.0459 270.442 37.2783C270.259 37.5107 270.116 37.7773 270.011 38.0781C269.911 38.3743 269.861 38.6888 269.861 39.0215ZM276.273 39.3838V39.2266C276.273 38.6934 276.35 38.1989 276.505 37.7432C276.66 37.2829 276.883 36.8841 277.175 36.5469C277.467 36.2051 277.82 35.9408 278.235 35.7539C278.649 35.5625 279.114 35.4668 279.629 35.4668C280.149 35.4668 280.616 35.5625 281.03 35.7539C281.45 35.9408 281.805 36.2051 282.097 36.5469C282.393 36.8841 282.619 37.2829 282.774 37.7432C282.929 38.1989 283.006 38.6934 283.006 39.2266V39.3838C283.006 39.917 282.929 40.4115 282.774 40.8672C282.619 41.3229 282.393 41.7217 282.097 42.0635C281.805 42.4007 281.452 42.665 281.037 42.8564C280.627 43.0433 280.162 43.1367 279.643 43.1367C279.123 43.1367 278.656 43.0433 278.241 42.8564C277.827 42.665 277.471 42.4007 277.175 42.0635C276.883 41.7217 276.66 41.3229 276.505 40.8672C276.35 40.4115 276.273 39.917 276.273 39.3838ZM277.537 39.2266V39.3838C277.537 39.7529 277.581 40.1016 277.667 40.4297C277.754 40.7533 277.884 41.0404 278.057 41.291C278.235 41.5417 278.456 41.7399 278.72 41.8857C278.984 42.027 279.292 42.0977 279.643 42.0977C279.989 42.0977 280.292 42.027 280.552 41.8857C280.816 41.7399 281.035 41.5417 281.208 41.291C281.381 41.0404 281.511 40.7533 281.598 40.4297C281.689 40.1016 281.735 39.7529 281.735 39.3838V39.2266C281.735 38.862 281.689 38.5179 281.598 38.1943C281.511 37.8662 281.379 37.5768 281.201 37.3262C281.028 37.071 280.809 36.8704 280.545 36.7246C280.285 36.5788 279.98 36.5059 279.629 36.5059C279.283 36.5059 278.977 36.5788 278.713 36.7246C278.453 36.8704 278.235 37.071 278.057 37.3262C277.884 37.5768 277.754 37.8662 277.667 38.1943C277.581 38.5179 277.537 38.862 277.537 39.2266ZM288.899 41.0381C288.899 40.8558 288.858 40.6872 288.776 40.5322C288.698 40.3727 288.536 40.2292 288.29 40.1016C288.049 39.9694 287.684 39.8555 287.196 39.7598C286.786 39.6732 286.415 39.5706 286.082 39.4521C285.754 39.3337 285.474 39.1901 285.241 39.0215C285.014 38.8529 284.838 38.6546 284.715 38.4268C284.592 38.1989 284.53 37.9323 284.53 37.627C284.53 37.3353 284.594 37.0596 284.722 36.7998C284.854 36.54 285.039 36.3099 285.276 36.1094C285.517 35.9089 285.806 35.7516 286.144 35.6377C286.481 35.5238 286.857 35.4668 287.272 35.4668C287.864 35.4668 288.37 35.5716 288.789 35.7812C289.209 35.9909 289.53 36.2712 289.753 36.6221C289.976 36.9684 290.088 37.3535 290.088 37.7773H288.823C288.823 37.5723 288.762 37.374 288.639 37.1826C288.52 36.9867 288.345 36.8249 288.112 36.6973C287.885 36.5697 287.604 36.5059 287.272 36.5059C286.921 36.5059 286.636 36.5605 286.417 36.6699C286.203 36.7747 286.046 36.9092 285.945 37.0732C285.85 37.2373 285.802 37.4105 285.802 37.5928C285.802 37.7295 285.825 37.8525 285.87 37.9619C285.92 38.0667 286.007 38.1647 286.13 38.2559C286.253 38.3424 286.426 38.4245 286.65 38.502C286.873 38.5794 287.158 38.6569 287.504 38.7344C288.11 38.8711 288.609 39.0352 289.001 39.2266C289.393 39.418 289.685 39.6527 289.876 39.9307C290.068 40.2087 290.163 40.5459 290.163 40.9424C290.163 41.266 290.095 41.5622 289.958 41.8311C289.826 42.0999 289.632 42.3324 289.377 42.5283C289.126 42.7197 288.826 42.8701 288.475 42.9795C288.128 43.0843 287.739 43.1367 287.306 43.1367C286.654 43.1367 286.103 43.0205 285.652 42.7881C285.2 42.5557 284.859 42.2549 284.626 41.8857C284.394 41.5166 284.278 41.127 284.278 40.7168H285.549C285.567 41.0632 285.668 41.3389 285.85 41.5439C286.032 41.7445 286.255 41.888 286.52 41.9746C286.784 42.0566 287.046 42.0977 287.306 42.0977C287.652 42.0977 287.942 42.0521 288.174 41.9609C288.411 41.8698 288.591 41.7445 288.714 41.585C288.837 41.4255 288.899 41.2432 288.899 41.0381ZM293.089 37.0254V45.8438H291.818V35.6035H292.98L293.089 37.0254ZM298.072 39.2402V39.3838C298.072 39.9215 298.009 40.4206 297.881 40.8809C297.753 41.3366 297.567 41.7331 297.32 42.0703C297.079 42.4076 296.78 42.6696 296.425 42.8564C296.07 43.0433 295.662 43.1367 295.201 43.1367C294.732 43.1367 294.317 43.0592 293.957 42.9043C293.597 42.7493 293.292 42.5238 293.041 42.2275C292.791 41.9313 292.59 41.5758 292.44 41.1611C292.294 40.7464 292.194 40.2793 292.139 39.7598V38.9941C292.194 38.4473 292.296 37.9574 292.446 37.5244C292.597 37.0915 292.795 36.7223 293.041 36.417C293.292 36.1071 293.595 35.8724 293.95 35.7129C294.306 35.5488 294.716 35.4668 295.181 35.4668C295.646 35.4668 296.058 35.5579 296.418 35.7402C296.778 35.918 297.081 36.1732 297.327 36.5059C297.573 36.8385 297.758 37.2373 297.881 37.7021C298.009 38.1624 298.072 38.6751 298.072 39.2402ZM296.801 39.3838V39.2402C296.801 38.8711 296.762 38.5247 296.685 38.2012C296.607 37.873 296.487 37.5859 296.322 37.3398C296.163 37.0892 295.958 36.8932 295.707 36.752C295.457 36.6061 295.158 36.5332 294.812 36.5332C294.493 36.5332 294.215 36.5879 293.978 36.6973C293.745 36.8066 293.547 36.9548 293.383 37.1416C293.219 37.3239 293.084 37.5335 292.98 37.7705C292.879 38.0029 292.804 38.2445 292.754 38.4951V40.2656C292.845 40.5846 292.973 40.8854 293.137 41.168C293.301 41.446 293.52 41.6715 293.793 41.8447C294.067 42.0133 294.411 42.0977 294.825 42.0977C295.167 42.0977 295.461 42.027 295.707 41.8857C295.958 41.7399 296.163 41.5417 296.322 41.291C296.487 41.0404 296.607 40.7533 296.685 40.4297C296.762 40.1016 296.801 39.7529 296.801 39.3838ZM301.06 35.6035V43H299.788V35.6035H301.06ZM299.693 33.6416C299.693 33.4365 299.754 33.2633 299.877 33.1221C300.005 32.9808 300.192 32.9102 300.438 32.9102C300.679 32.9102 300.864 32.9808 300.991 33.1221C301.124 33.2633 301.19 33.4365 301.19 33.6416C301.19 33.8376 301.124 34.0062 300.991 34.1475C300.864 34.2842 300.679 34.3525 300.438 34.3525C300.192 34.3525 300.005 34.2842 299.877 34.1475C299.754 34.0062 299.693 33.8376 299.693 33.6416ZM306.187 35.6035V36.5742H302.188V35.6035H306.187ZM303.541 33.8057H304.806V41.168C304.806 41.4186 304.845 41.6077 304.922 41.7354C305 41.863 305.1 41.9473 305.223 41.9883C305.346 42.0293 305.478 42.0498 305.619 42.0498C305.724 42.0498 305.834 42.0407 305.947 42.0225C306.066 41.9997 306.155 41.9814 306.214 41.9678L306.221 43C306.121 43.0319 305.988 43.0615 305.824 43.0889C305.665 43.1208 305.471 43.1367 305.243 43.1367C304.933 43.1367 304.649 43.0752 304.389 42.9521C304.129 42.8291 303.922 42.624 303.767 42.3369C303.616 42.0452 303.541 41.6533 303.541 41.1611V33.8057ZM312.031 41.7354V37.9277C312.031 37.6361 311.972 37.3831 311.854 37.1689C311.74 36.9502 311.567 36.7816 311.334 36.6631C311.102 36.5446 310.815 36.4854 310.473 36.4854C310.154 36.4854 309.874 36.54 309.632 36.6494C309.395 36.7588 309.208 36.9023 309.071 37.0801C308.939 37.2578 308.873 37.4492 308.873 37.6543H307.609C307.609 37.39 307.677 37.1279 307.814 36.8682C307.95 36.6084 308.146 36.3737 308.402 36.1641C308.661 35.9499 308.971 35.7812 309.331 35.6582C309.696 35.5306 310.101 35.4668 310.548 35.4668C311.086 35.4668 311.56 35.5579 311.97 35.7402C312.385 35.9225 312.708 36.1982 312.941 36.5674C313.178 36.932 313.296 37.39 313.296 37.9414V41.3867C313.296 41.6328 313.317 41.8949 313.358 42.1729C313.403 42.4508 313.469 42.6901 313.556 42.8906V43H312.237C312.173 42.8542 312.123 42.6605 312.086 42.4189C312.05 42.1729 312.031 41.945 312.031 41.7354ZM312.25 38.5156L312.264 39.4043H310.986C310.626 39.4043 310.304 39.4339 310.022 39.4932C309.739 39.5479 309.502 39.6322 309.311 39.7461C309.119 39.86 308.973 40.0036 308.873 40.1768C308.773 40.3454 308.723 40.5436 308.723 40.7715C308.723 41.0039 308.775 41.2158 308.88 41.4072C308.985 41.5986 309.142 41.7513 309.352 41.8652C309.566 41.9746 309.828 42.0293 310.138 42.0293C310.525 42.0293 310.867 41.9473 311.163 41.7832C311.459 41.6191 311.694 41.4186 311.867 41.1816C312.045 40.9447 312.141 40.7145 312.154 40.4912L312.695 41.0996C312.663 41.291 312.576 41.5029 312.435 41.7354C312.293 41.9678 312.104 42.1911 311.867 42.4053C311.635 42.6149 311.357 42.7904 311.033 42.9316C310.714 43.0684 310.354 43.1367 309.953 43.1367C309.452 43.1367 309.012 43.0387 308.634 42.8428C308.26 42.6468 307.969 42.3848 307.759 42.0566C307.554 41.724 307.451 41.3525 307.451 40.9424C307.451 40.5459 307.529 40.1973 307.684 39.8965C307.839 39.5911 308.062 39.3382 308.354 39.1377C308.645 38.9326 308.996 38.7777 309.406 38.6729C309.817 38.568 310.275 38.5156 310.78 38.5156H312.25ZM316.659 32.5V43H315.388V32.5H316.659Z" fill="white"/>
<defs>
<clipPath id="clip0_28_351">
<rect width="47.6047" height="46" fill="white"/>
</clipPath>
</defs>
</svg>
