<svg width="48" height="46" viewBox="0 0 48 46" fill="none" xmlns="http://www.w3.org/2000/svg">
<g clip-path="url(#clip0_9_537)">
<path d="M43.325 4.28076H27.4574V9.79756H37.8005V36.3673H25.8518V6.77584H21.7492V36.3673H9.80608V9.79756H20.1473V4.28076H4.27881V41.7203H43.325V4.28076Z" fill="#20B78A"/>
<path d="M0 0V46H47.6047V0H0ZM44.9315 43.1468H2.85506V2.85316H44.9315V43.1468Z" fill="#20B78A"/>
<path d="M20.1321 34.8035V11.2021C15.101 12.7649 11.4479 17.457 11.4479 23.0024C11.4479 28.5477 15.101 33.2398 20.1321 34.8035Z" fill="#20B78A"/>
<path d="M36.1568 23.0024C36.1568 17.4485 32.4923 12.7517 27.4488 11.1956V34.8093C32.4923 33.2542 36.1568 28.5564 36.1568 23.0024Z" fill="#20B78A"/>
</g>
<defs>
<clipPath id="clip0_9_537">
<rect width="47.6047" height="46" fill="white"/>
</clipPath>
</defs>
</svg>
