<svg width="381" height="512" viewBox="0 0 381 512" fill="none" xmlns="http://www.w3.org/2000/svg">
<path d="M194.462 321.055H61.1868V251.077H194.462C217.67 251.077 236.425 247.326 250.725 239.824C265.026 232.322 275.458 222.007 282.022 208.879C288.821 195.516 292.22 180.278 292.22 163.165C292.22 146.989 288.821 131.868 282.022 117.802C275.458 103.502 265.026 92.0147 250.725 83.3407C236.425 74.6667 217.67 70.3297 194.462 70.3297H88.2637V512H0V0H194.462C234.081 0 267.722 7.03297 295.385 21.0989C323.282 34.9304 344.498 54.1538 359.033 78.7692C373.568 103.15 380.835 131.048 380.835 162.462C380.835 195.516 373.568 223.883 359.033 247.56C344.498 271.238 323.282 289.407 295.385 302.066C267.722 314.725 234.081 321.055 194.462 321.055Z" fill="white"/>
</svg>
